<svg width="582" height="597" viewBox="0 0 582 597" fill="none" xmlns="http://www.w3.org/2000/svg">
<path d="M536.989 442.673C533.293 514.72 475.548 580.01 404.763 594.054C333.979 608.098 256.509 570.744 222.018 507.374C218.212 500.381 214.823 493.047 211.433 485.713C202.684 466.779 193.937 447.851 178.031 434.827C159.87 419.957 136.513 415.98 112.921 411.963C97.9403 409.412 82.8645 406.844 68.964 401.462C35.4544 388.486 9.43597 357.745 2.18301 322.56C-9.57048 265.542 27.6589 207.329 77.3055 176.901C126.952 146.474 186.61 137.999 244.476 131.47C266.612 128.972 284.594 112.296 297.436 94.099C302.408 87.0546 306.881 79.6523 311.351 72.2556C318.427 60.5459 325.495 48.8499 334.52 38.6086C372.734 -4.75688 443.895 -12.0746 492.569 19.1077C541.242 50.29 564.539 114.41 551.596 170.735C549.366 180.436 546.202 189.882 543.037 199.329L543.036 199.33C540.007 208.373 536.977 217.417 534.768 226.686C530.044 246.496 529.143 266.997 528.605 287.356C527.964 311.63 527.813 335.966 530.087 360.142C530.878 368.551 531.962 376.951 533.046 385.348C535.51 404.43 537.972 423.503 536.989 442.673Z" fill="#C9006C"/>
<path d="M244.396 114.262C270.863 101.099 291.928 78.2396 305.193 51.8303C306.933 48.3677 308.581 44.6885 308.52 40.8143C308.459 36.94 306.204 32.8364 302.455 31.8524C297.083 30.4424 292.462 35.5919 289.112 40.0209C266.097 70.4463 232.599 94.3316 194.8 99.5408C180.282 101.541 165.543 100.79 150.907 100.035L128.047 98.8548C109.636 97.9045 90.9684 96.9732 72.9461 100.857C54.9239 104.741 37.314 114.082 27.4156 129.63C24.2649 134.58 21.905 140.412 22.7768 146.213C23.6701 152.158 27.8972 157.204 32.9891 160.402C38.0809 163.601 43.9965 165.201 49.8591 166.539C54.1514 167.52 58.5354 168.388 62.9275 168.079C70.108 167.573 76.6242 164.004 82.9646 160.531C83.3869 160.3 83.8085 160.069 84.2294 159.839C95.3109 153.796 106.794 148.428 118.77 144.44C136.235 138.625 154.599 135.779 172.918 132.94C197.596 129.116 222.193 125.304 244.396 114.262Z" fill="#C9006C"/>
<path d="M106.759 464.922L106.775 464.922C107.853 464.966 108.931 465.009 110.007 465.065C127.014 465.949 143.844 470.117 159.297 477.272C165.189 480 171.157 483.415 174.466 488.999C178.56 495.91 183.476 502.334 189.075 508.093C191.247 510.328 193.6 512.513 196.5 513.655C199.4 514.796 202.981 514.692 205.334 512.648C208.193 510.166 208.379 505.759 207.498 502.077C206.054 496.044 202.454 490.786 198.89 485.708C187.196 469.044 174.885 452.382 158.612 440.146C142.339 427.91 121.338 420.501 101.42 424.728C94.5422 426.187 87.7258 429.162 83.166 434.512C78.6062 439.862 76.8043 447.913 80.0883 454.128C82.6936 459.058 87.9753 462.092 93.3827 463.459C97.7409 464.561 102.254 464.741 106.758 464.922H106.759Z" fill="#C9006C"/>
<path d="M566.786 214.275C562.24 212.562 557.091 214.631 553.243 217.597C545.642 223.454 541.146 232.617 539.1 241.99C537.054 251.364 537.219 261.06 537.394 270.652L538.897 353.07C539.007 359.091 539.274 365.581 542.978 370.33C544.137 371.816 545.724 373.121 547.599 373.312C549.872 373.544 551.975 372.109 553.617 370.52C562.594 361.831 563.773 348.144 564.847 335.669L564.886 335.216C566.465 316.903 569.199 298.69 573.067 280.72C574.154 275.667 575.349 270.582 577.624 265.94C584.757 251.388 583.051 232.916 573.374 219.916C571.624 217.565 569.53 215.31 566.786 214.275Z" fill="#C9006C"/>
</svg>
