<svg width="165" height="318" viewBox="0 0 165 318" fill="none" xmlns="http://www.w3.org/2000/svg">
<path d="M11.8947 261.964L9.47198 254.799L3.01406 252.11L9.47198 249.422L11.8947 242.257L14.3175 249.422L20.7754 252.11L14.3175 254.799L11.8947 261.964Z" fill="#E1204C"/>
<path d="M152.909 115.256L150.487 108.091L144.029 105.403L150.487 102.714L152.909 95.5491L155.332 102.714L161.79 105.403L155.332 108.091L152.909 115.256Z" fill="#E1204C"/>
<path d="M52.8144 29.2619L49.7309 20.1424L41.5117 16.7211L49.7309 13.2998L52.8144 4.18027L55.8979 13.2998L64.1171 16.7211L55.8979 20.1424L52.8144 29.2619Z" fill="#E1204C"/>
<path d="M136.743 39.414L135.201 34.8543L131.091 33.1436L135.201 31.433L136.743 26.8732L138.284 31.433L142.394 33.1436L138.284 34.8543L136.743 39.414Z" fill="#E1204C"/>
<path d="M81.3034 316.059L79.8718 311.825L76.0558 310.236L79.8718 308.648L81.3034 304.414L82.7351 308.648L86.5511 310.236L82.7351 311.825L81.3034 316.059Z" fill="#E1204C"/>
</svg>
